#!OML:ASF F:\VICON\USERDATA\Patient Classification 1\PLAYGROUND\JustinFriday\JustinFriday.ASF
:FULLY-SPECIFIED
:DEGREES
4229
root -20.2505 17.755 11.597 190.354 58.7848 -173.982
lowerback 13.6619 2.44044 7.94266
upperback 1.8193 4.87611 3.58834
thorax -5.39624 2.36731 -1.54489
lowerneck -9.17326 7.27872 0.0405654
upperneck 6.53249 11.2203 -11.9093
head 4.1685 5.11252 -2.88241
rclavicle 8.3092e-014 -3.49861e-014
rhumerus -26.6225 -4.48842 -73.1181
rradius 54.6451
rwrist -9.3114
rhand -19.2895 -386.724
rfingers 7.12502
rthumb 7.02567 -416.588
lclavicle 8.3092e-014 -3.49861e-014
lhumerus -24.9927 21.4171 83.1534
lradius 20.8988
lwrist -23.4603
lhand -21.3482 3.17236
lfingers 7.12502
lthumb 5.03812 33.0925
rfemur -15.1061 -10.0969 27.9719
rtibia 29.4467
rfoot -24.3564 -21.9189
rtoes 31.5978
lfemur -20.0212 0.848136 -10.9957
ltibia 26.7411
lfoot -11.0236 -24.652
ltoes 10.9287
4230
root -20.2479 17.7629 11.5915 190.145 58.0855 -174.505
lowerback 13.2805 2.36445 8.15687
upperback 1.95266 4.72455 3.27121
thorax -5.00873 2.30164 -1.94283
lowerneck -9.01119 7.26046 -0.0901448
upperneck 6.10718 11.1356 -11.7889
head 3.99204 5.09865 -2.84623
rclavicle 2.26615e-014 -6.99722e-014
rhumerus -27.6789 -5.79687 -73.619
rradius 50.4761
rwrist -7.4954
rhand -18.2346 -385.972
rfingers 7.12502
rthumb 8.04387 -415.799
lclavicle 2.26615e-014 -6.99722e-014
lhumerus -27.2042 29.003 77.6896
lradius 19.0341
lwrist -25.4935
lhand -22.6083 5.04508
lfingers 7.12502
lthumb 3.82132 34.9906
rfemur -15.3861 -10.303 27.8043
rtibia 29.5111
rfoot -24.6537 -22.3232
rtoes 31.3881
lfemur -20.3626 1.06834 -11.2157
ltibia 26.824
lfoot -11.6995 -23.8686
ltoes 10.132
4231
root -20.258 17.7739 11.5921 189.893 56.7706 -175.142
lowerback 13.0715 2.20592 8.28389
upperback 1.85441 4.50077 3.12861
thorax -4.99517 2.18371 -2.11792
lowerneck -8.92218 7.13318 -0.330007
upperneck 6.29858 11.0047 -11.6599
head 4.00725 5.03032 -2.78083
rclavicle 7.07673e-014 -4.77083e-015
rhumerus -29.0307 -7.07867 -73.6407
rradius 46.3514
rwrist -6.27824
rhand -16.8191 -385.199
rfingers 7.12502
rthumb 9.40989 -414.969
lclavicle 7.07673e-014 -4.77083e-015
lhumerus -30.3305 35.425 71.6762
lradius 17.6811
lwrist -27.4889
lhand -21.0971 7.81041
lfingers 7.12502
lthumb 5.28059 37.7246
rfemur -15.7392 -10.9727 27.6878
rtibia 29.5139
rfoot -25.0253 -22.6883
rtoes 31.7134
lfemur -20.7949 0.532421 -11.4042
ltibia 26.7852
lfoot -13.214 -22.104
ltoes 6.50289
4232
root -20.2514 17.7773 11.5744 189.328 56.7589 -175.324
lowerback 13.5432 2.45678 8.11385
upperback 2.05717 4.85292 3.10428
thorax -5.01937 2.36644 -2.12728
lowerneck -9.25998 7.03574 -0.565956
upperneck 6.85368 10.9777 -11.5346
head 4.21183 4.98026 -2.68732
rclavicle 4.73108e-014 -1.59028e-014
rhumerus -30.1658 -8.05211 -73.6282
rradius 42.2289
rwrist -6.84197
rhand -15.3442 -384.235
rfingers 7.12502
rthumb 10.8328 -413.936
lclavicle 4.73108e-014 -1.59028e-014
lhumerus -33.8655 40.4293 65.5243
lradius 16.8972
lwrist -28.3834
lhand -31.3937 3.16741
lfingers 7.12502
lthumb -4.66331 33.0961
rfemur -15.2273 -11.4119 27.358
rtibia 29.4937
rfoot -24.9709 -22.2719
rtoes 31.8873
lfemur -19.9591 -0.303542 -11.5453
ltibia 26.8019
lfoot -15.6131 -17.8817
ltoes 1.56757
4233
root -20.2526 17.7813 11.5833 189.565 56.3023 -175.546
lowerback 13.258 2.57555 7.75409
upperback 2.08434 4.92353 3.11972
thorax -4.85769 2.41385 -1.90531
lowerneck -9.52599 6.9822 -0.57069
upperneck 6.94208 10.9861 -11.8671
head 4.30514 4.96166 -2.7739
rclavicle 1.02175e-013 3.81667e-014
rhumerus -30.7897 -8.76266 -73.6829
rradius 38.0021
rwrist -7.6688
rhand -14.7832 -382.948
rfingers 7.12502
rthumb 11.3738 -412.62
lclavicle 1.02175e-013 3.81667e-014
lhumerus -37.4024 43.8728 59.7075
lradius 16.7941
lwrist -26.6237
lhand -19.4808 13.3582
lfingers 7.12502
lthumb 6.84106 43.2277
rfemur -15.7001 -11.551 27.3995
rtibia 29.4665
rfoot -25.3495 -22.4324
rtoes 32.0798
lfemur -20.2539 -0.275852 -11.6304
ltibia 26.9351
lfoot -16.8658 -14.4257
ltoes -1.99274
4234
root -20.2567 17.7715 11.5841 189.476 55.7923 -175.397
lowerback 13.679 2.62579 7.8139
upperback 2.19629 5.0478 3.13563
thorax -4.95731 2.47675 -1.96471
lowerneck -9.67947 6.82882 -0.347508
upperneck 7.03137 10.8283 -12.254
head 4.38476 4.86668 -2.93017
rclavicle 3.33958e-014 1.74931e-014
rhumerus -31.6658 -9.65277 -73.5192
rradius 33.9641
rwrist -7.46994
rhand -15.52 -382.847
rfingers 7.12502
rthumb 10.6632 -412.557
lclavicle 3.33958e-014 1.74931e-014
lhumerus -40.3249 45.1309 55.0596
lradius 17.2098
lwrist -24.0344
lhand -20.7759 13.1748
lfingers 7.12502
lthumb 5.59069 43.0811
rfemur -15.4619 -11.7325 27.5022
rtibia 29.4546
rfoot -25.7644 -22.5049
rtoes 32.4692
lfemur -19.8982 -0.106743 -11.4666
ltibia 27.1639
lfoot -17.9885 -11.2874
ltoes -4.35246
4235
root -20.2573 17.7759 11.5941 189.682 55.196 -175.371
lowerback 13.7138 2.76683 7.67825
upperback 2.06013 5.22592 3.16975
thorax -5.12165 2.55517 -1.8905
lowerneck -9.88863 6.76283 -0.390273
upperneck 7.82885 10.8611 -12.1988
head 4.66126 4.83823 -2.88555
rclavicle -9.54166e-015 -5.88403e-014
rhumerus -32.8607 -10.6749 -73.1955
rradius 30.1354
rwrist -6.9226
rhand -16.3226 -384.026
rfingers 7.12502
rthumb 9.88888 -413.773
lclavicle -9.54166e-015 -5.88403e-014
lhumerus -43.156 45.334 50.8008
lradius 17.8484
lwrist -21.4499
lhand -19.2984 17.3668
lfingers 7.12502
lthumb 7.01708 47.2305
rfemur -15.6988 -11.848 27.6824
rtibia 29.4655
rfoot -26.0415 -22.6934
rtoes 33.0237
lfemur -20.1439 1.16163 -11.5115
ltibia 27.4165
lfoot -18.3809 -9.47625
ltoes -4.74846
4236
root -20.262 17.7864 11.612 189.574 54.5105 -175.796
lowerback 13.8076 2.85252 7.20316
upperback 1.88192 5.2826 3.1794
thorax -5.40151 2.57326 -1.64202
lowerneck -9.83089 6.76221 -0.467676
upperneck 8.47422 10.999 -12.337
head 4.86403 4.87331 -2.89649
rclavicle -6.40087e-014 -5.24792e-014
rhumerus -33.9566 -11.581 -72.8726
rradius 26.6608
rwrist -6.30867
rhand -16.3392 -385.913
rfingers 7.12502
rthumb 9.87288 -415.662
lclavicle -6.40087e-014 -5.24792e-014
lhumerus -46.2311 45.2915 46.313
lradius 17.4356
lwrist -21.1572
lhand -19.9099 16.3906
lfingers 7.12502
lthumb 6.42679 46.2731
rfemur -16.0055 -11.5592 27.6216
rtibia 29.4523
rfoot -26.6491 -23.315
rtoes 33.6771
lfemur -20.557 2.18481 -11.8161
ltibia 27.71
lfoot -18.4957 -7.42543
ltoes -5.19469
4237
root -20.2625 17.7924 11.5942 189.249 54.098 -176.074
lowerback 13.9243 2.90066 7.10098
upperback 2.0065 5.33065 3.0929
thorax -5.32993 2.60425 -1.68781
lowerneck -9.95808 6.94525 -0.576483
upperneck 8.50341 11.2541 -12.2104
head 4.8966 4.99476 -2.81426
rclavicle 2.50469e-014 1.43125e-014
rhumerus -34.8613 -12.4579 -72.7246
rradius 23.7979
rwrist -5.00779
rhand -14.2224 -383.856
rfingers 7.12502
rthumb 11.9147 -413.497
lclavicle 2.50469e-014 1.43125e-014
lhumerus -47.4044 43.9092 44.1038
lradius 17.7155
lwrist -18.6027
lhand -19.9723 15.2856
lfingers 7.12502
lthumb 6.36659 45.1699
rfemur -15.8487 -11.6075 27.3923
rtibia 29.3272
rfoot -26.719 -23.756
rtoes 33.5941
lfemur -20.3951 2.34695 -12.0443
ltibia 28.0359
lfoot -18.8043 -4.04682
ltoes -7.06133
4238
root -20.2666 17.7978 11.6075 189.462 53.2424 -176.271
lowerback 13.6953 2.85469 6.81567
upperback 1.94056 5.20521 3.09376
thorax -5.3079 2.54623 -1.49624
lowerneck -10.3931 7.10747 -0.497229
upperneck 8.9079 11.539 -12.2121
head 5.11744 5.09842 -2.78035
rclavicle 9.54166e-015 8.42847e-014
rhumerus -35.8231 -14.2809 -72.0374
rradius 21.1156
rwrist -1.87184
rhand -11.1532 -385.224
rfingers 7.12502
rthumb 14.8729 -414.67
lclavicle 9.54166e-015 8.42847e-014
lhumerus -48.2478 42.3569 42.3382
lradius 18.3093
lwrist -15.8908
lhand -19.1446 15.1325
lfingers 7.12502
lthumb 7.16557 44.9912
rfemur -16.1856 -11.8256 27.5509
rtibia 29.0903
rfoot -26.7702 -24.4416
rtoes 33.3986
lfemur -20.9298 2.97581 -12.0793
ltibia 28.4218
lfoot -18.5199 -2.14603
ltoes -6.68264
4239
root -20.2638 17.7965 11.5875 189.716 52.8537 -175.643
lowerback 14.0048 2.88752 6.9439
upperback 1.91582 5.33763 3.39147
thorax -5.5156 2.61042 -1.29947
lowerneck -10.1471 6.90858 -0.808408
upperneck 9.36279 11.4507 -12.4807
head 5.21386 5.03108 -2.82343
rclavicle 2.8625e-014 1.74931e-014
rhumerus -37.2432 -17.2087 -69.863
rradius 18.4045
rwrist 3.00023
rhand -10.0312 -384.655
rfingers 7.12502
rthumb 15.9536 -414.018
lclavicle 2.8625e-014 1.74931e-014
lhumerus -50.1098 41.7319 39.3886
lradius 18.3826
lwrist -14.3901
lhand -17.9704 14.7705
lfingers 7.12502
lthumb 8.29887 44.5875
rfemur -15.6852 -11.7461 27.8534
rtibia 28.7377
rfoot -27.0823 -24.6263
rtoes 33.5973
lfemur -20.6246 2.5892 -11.5412
ltibia 28.8825
lfoot -18.4138 0.935697
ltoes -6.36537
